<svg xmlns="http://www.w3.org/2000/svg" width="256" height="256"><path fill-opacity=".016" d="M0 128.004v128.004l128.25-.254 128.25-.254.254-127.75L257.008 0H0v128.004m.485.496c0 70.4.119 99.053.265 63.672.146-35.38.146-92.98 0-128C.604 29.153.485 58.1.485 128.5" fill="#1976D2" fill-rule="evenodd"/><path fill-opacity=".362" d="M135.45.873c-.902.829-14.663 7.972-59.95 31.118-11 5.622-20.562 10.679-21.25 11.238-1.822 1.48-1.822 103.061 0 104.543 1.523 1.239 8.507 4.968 33.25 17.755 10.45 5.4 22.15 11.504 26 13.565l7 3.746 27-13.863c14.85-7.625 33.975-17.454 42.5-21.842l15.5-7.977.259-51.269c.143-28.198-.082-51.599-.5-52.004-.815-.789-.948-.728-21.195 9.631l-13.436 6.875-13.315-6.856c-7.323-3.771-14.664-7.677-16.314-8.68L138 35.029V17.515C138 7.882 137.64 0 137.2 0c-.44 0-1.228.393-1.75.873M47.667 195.667c-.367.366-.665 7.904-.662 16.75.005 15.472.096 16.197 2.405 19.083 2.292 2.866 2.795 3.015 11.245 3.34 7.851.302 9.155.097 11.595-1.822l2.75-2.163V195H64V226.139l-2.25-.319c-2.207-.314-2.255-.612-2.526-15.57L58.948 195h-5.307c-2.919 0-5.608.3-5.974.667m31.367.583c.019.688.943 4.85 2.054 9.25 1.111 4.4 2.416 9.8 2.901 12 1.483 6.732 3.874 15.469 4.518 16.512.336.543 3.23.988 6.431.988 5.419 0 5.894-.189 6.902-2.75 1.664-4.224 7.16-26.424 7.16-28.919 0-1.217.45-2.491 1-2.831.55-.34 1-1.716 1-3.059 0-2.312-.312-2.441-5.893-2.441h-5.893l-1.229 6.25c-.676 3.438-1.447 7.94-1.713 10.006-.792 6.156-1.777 5.083-3.11-3.386-1.988-12.639-2.144-12.87-8.637-12.87-3.772 0-5.514.397-5.491 1.25m35.411.032c-.27.705-.369 9.593-.218 19.75l.273 18.468h11.84c11.363 0 11.921-.099 13.825-2.452 1.691-2.092 1.908-3.49 1.475-9.5-.627-8.675-.627-7.687.003-15.76.485-6.205.333-6.903-2.014-9.25-2.412-2.412-3.089-2.538-13.615-2.538-8.087 0-11.21.346-11.569 1.282m36.055-.087c-1.1.624-2.331 1.623-2.735 2.22-.404.597-.741 8.14-.75 16.762L147 230.855l2.635 2.072c2.193 1.725 4.05 2.073 11.077 2.073 7.997 0 8.596-.154 11.365-2.923l2.923-2.923v-13.627c0-14.136-1.007-18.548-4.545-19.906-2.755-1.057-17.843-.623-19.955.574m27.5-.144c0 .63 1.827 4.938 4.059 9.572 4.517 9.377 4.525 9.171-.681 19.313-4.855 9.461-4.672 10.232 2.348 9.864l5.726-.3 1.648-4.472 1.647-4.473 2.152 4.723L197.05 235h5.975c3.865 0 5.975-.41 5.975-1.16 0-.637-2.087-5.251-4.638-10.252l-4.637-9.094 2.179-4.997c1.198-2.748 2.835-6.191 3.637-7.651.803-1.46 1.459-3.62 1.459-4.8 0-1.98-.443-2.123-5.75-1.846-5.53.289-5.787.424-6.707 3.55-.526 1.787-1.22 3.25-1.543 3.25-.323 0-1.017-1.463-1.543-3.25-.933-3.17-1.111-3.257-7.207-3.548-4.204-.2-6.25.078-6.25.849M126 207c0 3.333.333 4 2 4s2-.667 2-4-.333-4-2-4-2 .667-2 4m33.25-3.269c-.898.313-1.25 3.532-1.25 11.422 0 10.821.034 10.981 2.25 10.667 2.151-.306 2.262-.787 2.533-10.95.286-10.757-.204-12.301-3.533-11.139M126 223.073c0 3.339.315 4.014 1.75 3.742 1.223-.232 1.843-1.458 2.06-4.073.267-3.212.019-3.742-1.75-3.742-1.743 0-2.06.627-2.06 4.073M56.389 241.98c-4.625 1.869-4.004 5.879 1.301 8.409 2.671 1.274 3.311 2.01 2.477 2.844-.835.835-1.778.778-3.645-.221-2.96-1.584-4.366-.734-2.501 1.513.891 1.073 2.606 1.479 5.393 1.275 3.62-.266 4.122-.612 4.401-3.035.263-2.285-.272-3.015-3.25-4.435-4.566-2.178-4.602-3.747-.065-2.896 4.027.755 4.605-.547 1.277-2.877-2.499-1.751-2.486-1.75-5.388-.577M181 248.5c0 6 .3 7.5 1.5 7.5.825 0 1.5-.745 1.5-1.655 0-1.54.127-1.54 1.829 0 1.755 1.589 4.171 2.237 4.171 1.12 0-.295-.734-1.656-1.632-3.026-1.514-2.311-1.509-2.625.065-4.365 2.305-2.547.113-3.878-2.496-1.517-1.882 1.704-1.937 1.65-1.937-1.902 0-2.582-.44-3.655-1.5-3.655-1.2 0-1.5 1.5-1.5 7.5m-66-.7c0 3.19.54 6.34 1.2 7 1.419 1.419 6.679 1.562 8.772.238 2.119-1.34 2.144-12.538.028-12.538-1.092 0-1.584 1.36-1.81 5-.357 5.765-1.423 7.382-3.648 5.535-1.004-.833-1.542-2.982-1.542-6.157 0-3.669-.372-4.878-1.5-4.878-1.161 0-1.5 1.311-1.5 5.8m13-4.949c0 .941 1.604 6.141 3.207 10.399.624 1.657 1.783 2.75 2.914 2.75 1.034 0 1.879-.119 1.879-.264 0-.145.9-2.727 2-5.736 2.383-6.521 2.483-8 .539-8-.859 0-1.906 1.649-2.539 4-.592 2.2-1.439 4-1.88 4-.442 0-1.343-1.8-2.002-4-.687-2.293-1.821-4-2.658-4-.803 0-1.46.383-1.46.851m19.667-.184c-.367.366-.667 3.516-.667 7V256h5.2c5.231 0 5.784-1.498.8-2.165-2.296-.308-2.524-.804-2.8-6.085-.28-5.379-.931-6.685-2.533-5.083m-44.918 1.583c-.229.688-1.954 1.25-3.833 1.25-3.416 0-3.416 0-3.718 5.25-.243 4.208.005 5.25 1.25 5.25 1.085 0 1.552-.98 1.552-3.259 0-2.189.665-3.675 2.023-4.523 2.286-1.428 2.678-.902 3.184 4.282.219 2.239.864 3.081 2.543 3.32 2.581.366 2.736-.069 1.009-2.834-.988-1.582-.986-2.393.009-3.986.999-1.599.999-2.401 0-4-1.409-2.256-3.392-2.626-4.019-.75m-36.087 1.422c-.364.364-.662 2.836-.662 5.495 0 3.539.385 4.833 1.44 4.833.935 0 1.548-1.287 1.75-3.673.445-5.275 2.81-5.621 2.81-.41 0 5.415 2.737 5.767 3.19.41.445-5.275 2.81-5.621 2.81-.41 0 3.499.304 4.083 2.13 4.083 1.936 0 2.083-.414 1.617-4.549-.282-2.503-.79-4.828-1.13-5.167-.873-.873-13.156-1.412-13.955-.612m18.538.528c-2.014 2.014-1.346 3.049 1.55 2.405l2.75-.611-2.75 1.535c-1.843 1.028-2.75 2.349-2.75 4.003 0 2.258.382 2.468 4.5 2.468H93v-3.929c0-5.807-4.487-9.184-7.8-5.871m74.455.629c-1.936 2.139-2.171 6.255-.455 7.971.66.66 2.696 1.2 4.525 1.2 2.649 0 3.523-.522 4.3-2.565 2.226-5.856-4.351-11.047-8.37-6.606m11.917-.258c-1.104 1.104-1.574 2.918-1.375 5.303.292 3.499.44 3.626 4.22 3.626 2.33 0 4.092-.528 4.351-1.304.303-.908-.42-1.211-2.381-1-2.086.225-2.914-.177-3.195-1.552-.556-2.721 1.355-4.265 3.29-2.659 2.001 1.66 3.279.448 1.881-1.783-1.468-2.342-4.773-2.649-6.791-.631m21.083.258c-2.036 2.249-2.151 6.514-.22 8.117 1.689 1.402 8.294 1.013 7.565-.446-.275-.55-1.512-.87-2.75-.712-1.238.158-2.25-.179-2.25-.75s1.35-1.038 3-1.038c3.535 0 4.121-2.675 1.171-5.345-2.377-2.151-4.462-2.095-6.516.174m10.595-1.167c-.762.308-1.25 2.424-1.25 5.421 0 4.25.271 4.917 2 4.917 1.575 0 2-.667 2-3.14 0-1.765.723-3.668 1.653-4.348 3.013-2.203-.45-4.445-4.403-2.85m-41.856 3.755c-.828 2.157.323 4.844 1.857 4.333.687-.229 1.249-1.467 1.249-2.75 0-2.741-2.227-3.876-3.106-1.583M195 249c0 .55.45 1 1 1s1-.45 1-1-.45-1-1-1-1 .45-1 1m-108.5 4c.34.55 1.041 1 1.559 1s.941-.45.941-1-.702-1-1.559-1-1.281.45-.941 1" fill="#1976D2" fill-rule="evenodd"/><path fill-opacity=".375" d="M110.5 15.436c-14.3 7.28-32.862 16.765-41.25 21.077L54 44.354V78.84l8.75 4.39c8.301 4.164 28.619 14.713 47.25 24.533 4.675 2.463 9.063 4.93 9.75 5.481.955.765 1.25 8.877 1.25 34.378 0 18.358.26 33.378.579 33.378.318 0 7.856-3.771 16.75-8.379 8.894-4.609 26.971-13.878 40.171-20.598 13.2-6.721 24.567-12.758 25.259-13.416.987-.938 1.203-12.143 1-51.785l-.259-50.587-4.5 2.192c-4.424 2.156-12.184 6.019-45 22.403l-16.5 8.238-1-33.434-1-33.435-26 13.237M49 213.443C49 234.517 48.679 234 61.768 234c7.503 0 8.565-.242 10.777-2.455 2.409-2.408 2.455-2.766 2.455-19V196H65v15.031c0 12.994-.222 15.117-1.636 15.66-.9.345-2.362.17-3.25-.389-1.343-.846-1.66-3.472-1.891-15.659L57.947 196H49v17.443m31.014-16.193c.013 1.118 5.239 22.549 7.995 32.785L89.077 234h11.603l1.136-3.75c1.548-5.111 8.184-32.107 8.184-33.295 0-.525-2.179-.955-4.842-.955-4.737 0-4.865.081-5.915 3.75-.59 2.063-1.602 7.011-2.248 10.996-1.87 11.538-2.9 10.636-4.967-4.351C90.603 196.057 90.563 196 84.893 196c-3.255 0-4.888.418-4.879 1.25M115 215v19h10.777c14.153 0 15.223-.676 15.223-9.622 0-3.58-.451-7.353-1.003-8.383-.67-1.252-.67-2.079 0-2.493.552-.341 1.003-3.718 1.003-7.504 0-9.374-.951-9.998-15.223-9.998H115v19m34.549-16.64c-2.473 2.473-2.549 2.942-2.549 15.644 0 13.584 1.043 18.031 4.545 19.375.89.341 5.132.621 9.426.621 6.199 0 8.294-.394 10.168-1.913 2.298-1.862 2.361-2.328 2.361-17.451 0-11.405-.345-15.883-1.298-16.837-.823-.823-4.741-1.425-10.701-1.644-8.965-.329-9.521-.226-11.952 2.205M179 196.985c0 .542 1.849 4.715 4.11 9.273l4.11 8.287-4.11 8.473c-2.261 4.66-4.11 9.061-4.11 9.78 0 .946 1.426 1.223 5.164 1.004 5.074-.297 5.184-.371 6.26-4.222 1.21-4.33 3.248-5.754 4.169-2.913 2.409 7.43 2.302 7.333 8.028 7.333 2.959 0 5.379-.301 5.379-.669 0-.368-2.058-4.789-4.574-9.823l-4.573-9.153 4.073-8.817c2.241-4.85 4.074-8.98 4.074-9.178 0-.198-2.458-.36-5.461-.36h-5.462L195 200c-.592 2.2-1.492 4-1.998 4-.507 0-1.461-1.8-2.12-4l-1.199-4h-5.341c-2.938 0-5.342.443-5.342.985m-53.291 5.639c-.982.983-.862 6.586.176 8.224.47.742 1.701 1.186 2.735.987 1.507-.291 1.88-1.253 1.88-4.849 0-3.754-.333-4.534-2.041-4.778-1.123-.161-2.36.027-2.75.416M158 215v12.133l2.75-.317 2.75-.316v-23l-2.75-.316-2.75-.317V215m-32.579 4.345c-.314.818-.424 2.762-.246 4.321.26 2.267.888 2.899 3.136 3.156 2.737.314 2.803.209 2.5-4-.26-3.609-.683-4.375-2.565-4.642-1.308-.186-2.494.303-2.825 1.165m-69.754 24.322c-1.685 1.685-.504 4.568 2.306 5.629 3.304 1.247 4.645 3.486 3.046 5.085-.729.729-2.029.688-4.283-.137-2.927-1.071-3.051-1.044-1.295.286 2.482 1.879 4.98 1.873 6.548-.017 1.672-2.014.709-4.069-2.663-5.685-1.541-.739-2.965-2.194-3.165-3.233-.319-1.653.089-1.816 3.26-1.302 2.158.351 3.389.208 3.042-.352-.663-1.074-5.79-1.28-6.796-.274m60.348 4.083c.009 2.613.452 5.425.985 6.25.683 1.057.974-.346.985-4.75.008-3.51-.423-6.25-.985-6.25-.55 0-.993 2.137-.985 4.75m7.985-.391c0 2.463-.291 5.302-.647 6.309-.508 1.436-.375 1.581.613.669 1.701-1.57 2.588-9.876 1.149-10.766-.757-.468-1.115.749-1.115 3.788m5.433-3.213c3.261 12.656 4.624 13.704 7.514 5.78 1.221-3.35 2.023-6.289 1.781-6.531-.241-.242-1.216 1.595-2.166 4.083-.95 2.487-2.057 4.522-2.46 4.522-.402 0-1.713-2.137-2.912-4.75-1.2-2.613-1.99-4.009-1.757-3.104m19.703 5.104c-.075 3.713.205 6.75.621 6.75.417 0 .623-2.137.458-4.75-.518-8.217-.938-8.995-1.079-2m33.024-.309c-.147 5.907-.035 6.28 1.34 4.5 1.485-1.921 1.515-1.921 3 0 .825 1.068 1.5 1.495 1.5.95 0-.545-.551-1.542-1.225-2.216-.967-.967-.942-1.694.118-3.45 1.076-1.783 1.081-1.977.025-.975-2.24 2.124-3.774 1.393-4.195-2-.221-1.787-.475-.351-.563 3.191m-78.266-3.813c-.397 5.136.739 10.872 2.152 10.872.501 0 .399-1.125-.228-2.5-.837-1.837-.846-3.143-.035-4.924.868-1.905.796-2.681-.339-3.623-1.138-.944-1.466-.907-1.55.175M71.25 247.08c1.037.604 1.798 2.323 1.868 4.22l.119 3.2.7-3c.779-3.337-.34-5.516-2.809-5.47-1.428.027-1.413.156.122 1.05m6.5-.005c.688.729 1.25 2.9 1.25 4.825 0 2.65.281 3.219 1.157 2.343 1.499-1.499-.097-7.406-2.172-8.04-1.198-.365-1.243-.197-.235.872m7.839-.219c-.291.47.583.643 1.941.383 2.144-.41 2.486-.093 2.588 2.394.066 1.577.046 3.43-.043 4.117-.09.688.307 1.25.881 1.25 1.444 0 1.317-6.327-.156-7.8-1.39-1.39-4.44-1.592-5.211-.344m11.661-.194c-.71.287-1.206 2.087-1.148 4.171l.103 3.667.738-3.087c.406-1.698 1.061-3.611 1.456-4.25.773-1.25.741-1.264-1.149-.501m65.75.067c3.664 1.395 4.162 6.868.75 8.24-1.38.555-1.651.929-.7.968 2.287.093 3.95-1.986 3.95-4.937 0-2.957-1.67-5.037-3.95-4.921-1.346.068-1.352.154-.05.65m9.035 1.205c-.569 1.064-.994 2.752-.945 3.75.05.999.513.353 1.029-1.434.976-3.38 2.627-4.104 4.681-2.05.803.803 1.2.838 1.2.107 0-1.05-2.204-2.307-4.047-2.307-.485 0-1.348.87-1.918 1.934m24.13-1.261c2.357.624 3.024 3.041 1.048 3.799-.966.371-2.13-.006-2.785-.902-1.291-1.765-2.428-1.05-2.428 1.525 0 2.259 2.654 4.923 4.821 4.842 1.254-.048 1.136-.283-.469-.93-3.757-1.516-3.742-3.007.03-3.007 1.925 0 3.733-.377 4.017-.837.833-1.347-2.356-5.174-4.206-5.047-1.554.106-1.557.152-.028.557M67 251.667c0 2.566.163 4.479.362 4.25.877-1.008 1.358-8.917.543-8.917-.498 0-.905 2.1-.905 4.667m92.429-2.239c-.335 1.335-.221 3.121.253 3.969.598 1.069.863.323.863-2.427 0-4.582-.262-4.945-1.116-1.542M204 251c0 2.2.178 4 .395 4 .217 0 .567-1.8.776-4 .21-2.2.032-4-.395-4-.427 0-.776 1.8-.776 4m-119.334 1.427c-.592 1.544 1.971 4.27 3.025 3.216.353-.354.065-.643-.641-.643-.791 0-1.083-.767-.76-2 .593-2.27-.786-2.756-1.624-.573M175 255c-.825.533-1.05.969-.5.969s1.675-.436 2.5-.969c.825-.533 1.05-.969.5-.969s-1.675.436-2.5.969m-55.187.683c.721.289 1.584.253 1.916-.079.332-.332-.258-.568-1.312-.525-1.165.048-1.402.285-.604.604m33 0c.721.289 1.584.253 1.916-.079.332-.332-.258-.568-1.312-.525-1.165.048-1.402.285-.604.604" fill="#1976D2" fill-rule="evenodd"/><path fill-opacity=".37" d="M69.25 196.8l-4.25.315v14.883c0 9.378-.391 15.126-1.057 15.537-.581.359-2.156.377-3.5.04L58 226.962V197h-9v16.345C49 233.623 48.583 233 62.144 233h9.486l1.685-3.534C74.654 226.659 75 222.97 75 211.525c0-7.924-.338-14.549-.75-14.723-.412-.174-2.662-.175-5-.002m126.864 2.194a139.482 139.482 0 00-1.521 4.339c-.912 2.815-2.956 1.429-3.923-2.66-.854-3.613-.949-3.673-5.769-3.673-2.696 0-4.901.26-4.901.578 0 .452 6.112 13.719 7.613 16.524.267.5-2.158 5.826-7.81 17.148-.772 1.548-.306 1.75 4.032 1.75h4.905l1.26-4.5c.842-3.009 1.807-4.5 2.912-4.5 1.094 0 2.1 1.519 2.98 4.5l1.329 4.5h10.503l-4.333-8.25c-2.383-4.537-4.341-9.15-4.352-10.25-.011-1.1 1.144-4.475 2.566-7.5 4.844-10.302 4.851-9.762-.146-10.16-3.953-.314-4.516-.087-5.345 2.154m-115.474-.767c.418.675 1.332 3.938 2.034 7.25 1.181 5.583 2.395 10.642 5.462 22.773l1.201 4.75h5.752c5.683 0 5.76-.039 6.433-3.25 2.029-9.68 6.659-28.552 7.483-30.5.91-2.151.743-2.25-3.786-2.25h-4.737l-1.742 7.75c-.957 4.262-1.741 9.411-1.74 11.441 0 3.99-1.191 5.529-2.747 3.548-.77-.98-4.253-19.024-4.253-22.033 0-.388-2.277-.706-5.059-.706-3.742 0-4.862.319-4.301 1.227M116 215v18h10.878c14.406 0 14.05.476 13.067-17.5-.09-1.65.162-4.86.561-7.133.442-2.515.259-5.55-.468-7.75L138.845 197H116v18m34-17.023c-1.196.754-1.566 3.91-1.825 15.546-.434 19.511-.455 19.477 12.193 19.477 12.845 0 12.641.293 12.6-18.079-.023-10.404-.402-14.908-1.36-16.171-1.101-1.45-2.937-1.747-10.718-1.735-5.165.009-10.065.441-10.89.962M125 207v5.127l3.25-.314c3.139-.302 3.25-.467 3.25-4.813s-.111-4.511-3.25-4.813l-3.25-.314V207m32.713-4.379c-1.008 1.007-.86 22.599.165 24.216.467.736 1.922 1.186 3.235 1 2.371-.335 2.387-.423 2.387-12.837v-12.5l-2.537-.296c-1.396-.163-2.859.025-3.25.417M125 223v5.127l3.25-.314c3.139-.302 3.25-.467 3.25-4.813s-.111-4.511-3.25-4.813l-3.25-.314V223" fill="#1976D2" fill-rule="evenodd"/></svg>